<?xml version="1.0" encoding="UTF-8"?>
<svg version="1.1" xmlns="http://www.w3.org/2000/svg" width="128" height="128">
<path d="M0 0 C1.06077255 -0.01182816 2.1215451 -0.02365631 3.21446228 -0.0358429 C6.72025246 -0.06873332 10.22526684 -0.07168679 13.73120117 -0.0715332 C16.17112038 -0.08184784 18.61103652 -0.0929109 21.0509491 -0.10469055 C26.1662087 -0.12412953 31.28119487 -0.12754206 36.39648438 -0.12109375 C42.94390074 -0.11510046 49.48989801 -0.15931044 56.03702259 -0.21698284 C61.07719717 -0.25399858 66.11703035 -0.25888322 71.15732384 -0.25470924 C73.57062381 -0.25757886 75.98393785 -0.27163538 78.39710426 -0.2971859 C81.777425 -0.32921219 85.15482718 -0.31658397 88.53515625 -0.29296875 C89.52712006 -0.3118515 90.51908386 -0.33073425 91.54110718 -0.35018921 C98.00976988 -0.24297342 101.3262638 1.28518278 105.99814892 5.77113628 C108.85209842 9.26963476 108.60250033 12.70020179 108.63867188 17.03686523 C108.64524307 17.68930206 108.65181427 18.34173889 108.65858459 19.01394653 C108.67828273 21.17165245 108.68997337 23.32928882 108.69995117 25.48706055 C108.7040267 26.22578651 108.70810223 26.96451248 108.71230125 27.72562408 C108.73314885 31.63698546 108.74745524 35.54831191 108.75683594 39.4597168 C108.76788755 43.48919619 108.80227611 47.51812141 108.84200764 51.54740524 C108.8682204 54.65477487 108.87653194 57.76201349 108.88011742 60.86948395 C108.88497271 62.35417669 108.89655656 63.838864 108.91515541 65.32344818 C109.0917207 80.35335068 109.0917207 80.35335068 104.46166992 85.56518555 C98.59473341 89.63163887 93.10683199 90.14340095 86.13354492 90.08276367 C85.13085571 90.08977295 84.1281665 90.09678223 83.09509277 90.10400391 C79.80033179 90.1215232 76.50643874 90.10998224 73.21166992 90.09643555 C70.91056148 90.09913219 68.60945416 90.10301605 66.30834961 90.10803223 C61.49346024 90.11391908 56.67886837 90.10539018 51.86401367 90.08666992 C45.70375893 90.06388129 39.54420136 90.07700867 33.38397217 90.10095978 C28.63463117 90.11543948 23.88545444 90.11080171 19.1361084 90.10044861 C16.86519284 90.09778735 14.59426218 90.10102985 12.32336426 90.11036682 C9.14510805 90.12056784 5.96796835 90.10498062 2.78979492 90.08276367 C1.85864868 90.0908606 0.92750244 90.09895752 -0.03186035 90.1072998 C-5.98214849 90.03055372 -10.59144909 88.99724813 -15.53833008 85.56518555 C-21.13095144 79.23806216 -20.12027972 71.21523888 -20.06958008 63.2175293 C-20.07227832 61.71732838 -20.0761635 60.21712917 -20.08117676 58.7169342 C-20.08705448 55.58244065 -20.07856414 52.44840492 -20.05981445 49.31396484 C-20.0370054 45.30680192 -20.05017017 41.30070964 -20.07410431 37.29358578 C-20.08859268 34.19906111 -20.08394289 31.10478827 -20.07359314 28.01025581 C-20.07093523 26.5331465 -20.07416255 25.05601392 -20.08351135 23.57893181 C-20.0937304 21.51115638 -20.07810652 19.44509025 -20.0559082 17.37744141 C-20.05272583 16.20386581 -20.04954346 15.03029022 -20.04626465 13.82115173 C-19.26372349 8.80490022 -16.76011972 5.93204706 -13.44697571 2.22550964 C-9.053498 -0.28239192 -4.97854471 -0.01687949 0 0 Z M-4.53833008 21.56518555 C-0.24891385 26.13189737 4.54604469 29.83884608 9.52416992 33.62768555 C11.12126133 34.84506687 12.71638031 36.06504103 14.30932617 37.2878418 C15.01065674 37.82159424 15.7119873 38.35534668 16.43457031 38.90527344 C18.58894638 40.66940723 20.52445399 42.56710044 22.46166992 44.56518555 C21.89319336 45.12206055 21.3247168 45.67893555 20.73901367 46.25268555 C14.21913055 52.69637638 8.10743355 59.33860811 2.46166992 66.56518555 C7.55283645 64.96425232 11.30596117 61.85181014 15.46166992 58.62768555 C24.89457399 51.36156479 24.89457399 51.36156479 28.46166992 49.56518555 C33.58462403 50.38020097 37.21378938 53.40818748 41.21557617 56.51831055 C43.44545922 57.84573844 43.44545922 57.84573844 45.92651367 56.94018555 C49.42307543 55.04374527 52.67646483 52.85010652 55.96166992 50.61206055 C58.46166992 49.56518555 58.46166992 49.56518555 60.73901367 50.0222168 C64.6899247 52.26125533 68.34451218 54.84638327 72.02416992 57.50268555 C72.77891602 58.04086914 73.53366211 58.57905273 74.3112793 59.13354492 C77.72467092 61.57254105 81.11128844 64.040159 84.46166992 66.56518555 C85.12166992 66.23518555 85.78166992 65.90518555 86.46166992 65.56518555 C85.89319336 65.00831055 85.3247168 64.45143555 84.73901367 63.87768555 C78.2084054 57.4233949 72.17340188 50.75131253 66.46166992 43.56518555 C67.66870117 42.62638346 68.87573242 41.68758138 70.08276367 40.7487793 C70.85426758 40.1487207 71.62577148 39.54866211 72.4206543 38.93041992 C74.82885742 37.05737305 77.23706055 35.18432617 79.64526367 33.3112793 C80.43271973 32.69881348 81.22017578 32.08634766 82.03149414 31.45532227 C83.23443115 30.51970459 83.23443115 30.51970459 84.46166992 29.56518555 C85.32163574 28.89632324 86.18160156 28.22746094 87.06762695 27.53833008 C89.19897461 25.88061523 91.33032227 24.22290039 93.46166992 22.56518555 C89.96845068 22.56518555 88.47807497 23.40842456 85.40307617 25.0222168 C84.38640869 25.55322998 83.36974121 26.08424316 82.32226562 26.63134766 C81.23389404 27.20763916 80.14552246 27.78393066 79.02416992 28.37768555 C77.91066162 28.95848877 76.79715332 29.53929199 75.64990234 30.13769531 C70.23170696 32.97877915 64.86325032 35.87808424 59.57104492 38.94799805 C58.67313232 39.46386475 57.77521973 39.97973145 56.85009766 40.51123047 C55.16720634 41.48561992 53.49420128 42.47734393 51.83300781 43.48828125 C51.07753662 43.92487061 50.32206543 44.36145996 49.54370117 44.8112793 C48.8963501 45.19985107 48.24899902 45.58842285 47.58203125 45.98876953 C42.75373018 47.30133359 37.90099498 43.87588958 33.75073242 41.6237793 C32.67758789 41.0438623 31.60444336 40.46394531 30.4987793 39.86645508 C29.3727832 39.25141113 28.24678711 38.63636719 27.08666992 38.00268555 C25.93231445 37.3773291 24.77795898 36.75197266 23.58862305 36.10766602 C16.34734645 32.17434543 9.13361243 28.19347817 2.00708008 24.05517578 C-1.06575893 22.16226753 -1.06575893 22.16226753 -4.53833008 21.56518555 Z " fill="#FF0000" transform="translate(19.538330078125,19.434814453125)"/>
</svg>
