<?xml version="1.0" encoding="UTF-8"?>
<svg version="1.1" xmlns="http://www.w3.org/2000/svg" width="128" height="128">
<path d="M0 0 C10.10070797 5.80790708 15.59619829 19.80126506 18.8125 30.4375 C22.85618142 48.33195226 19.95666829 66.27105224 10.8671875 82.109375 C7.48887936 87.33939179 3.97748193 92.65543427 -2 95 C-6.18519447 94.92526438 -8.28378219 94.60878514 -11.5 91.875 C-13.00036493 88.99930055 -13.54122261 87.28206503 -12.87890625 84.08203125 C-11.24310546 80.20700093 -8.54253776 77.02741528 -6.00390625 73.703125 C1.87437299 63.07589453 2.80976399 51.84054323 2 39 C0.58225316 30.24332835 -3.81700973 21.28421548 -9.8125 14.75 C-12.50813857 11.36119723 -13.07847374 9.31605565 -13 5 C-9.24294509 -0.95946642 -6.75977164 -1.48944121 0 0 Z " fill="#FF0000" transform="translate(108,17)"/>
<path d="M0 0 C2.5 2.125 2.5 2.125 4 5 C4.5212109 11.51513623 0.82229069 15.2967723 -2.99609375 20.296875 C-10.87437299 30.92410547 -11.80976399 42.15945677 -11 55 C-9.58225316 63.75667165 -5.18299027 72.71578452 0.8125 79.25 C3.50813857 82.63880277 4.07847374 84.68394435 4 89 C2.02126538 92.79257469 0.71108416 93.77614017 -3.375 95.0625 C-7.99797476 94.98279354 -9.52519244 94.03121511 -13 91 C-25.62221072 77.53405861 -29.86191193 59.88215868 -29.34765625 41.984375 C-28.51557121 26.39247323 -21.83252307 12.2053022 -11 1 C-7.1048404 -1.46643311 -4.4546199 -1.19320176 0 0 Z " fill="#FF0000" transform="translate(29,17)"/>
<path d="M0 0 C2.375 1 2.375 1 4 3 C5.09349022 6.28047065 5.53667565 7.70168093 5 11 C3.42411829 13.66358267 1.6133093 16.03454143 -0.265625 18.4921875 C-3.70950544 23.47185247 -4.47824848 28.50594733 -3.5625 34.4375 C-2.56419593 38.30930092 -0.72802556 40.90299257 1.6875 44.0625 C4.11677303 47.31165267 5.54954305 49.31926033 5.1875 53.4375 C4 57 4 57 2.375 59 C-1.10142471 60.46375777 -3.25006508 60.57202397 -7 60 C-14.31229892 55.7435872 -18.42250854 48.50641371 -20.8125 40.625 C-23.25415016 30.40936025 -22.1503414 21.69219668 -18 12 C-13.4685286 4.67184324 -9.17345728 -0.98287042 0 0 Z " fill="#FF0000" transform="translate(48,34)"/>
<path d="M0 0 C7.31047208 4.27093678 11.41967217 11.48423288 13.8125 19.375 C16.40514394 30.22238386 15.24521025 40.66102009 9.57421875 50.46484375 C6.8878126 54.19249259 3.99208539 57.66316952 0 60 C-3.93750984 60.55263296 -6.02385272 60.64220216 -9.375 58.4375 C-11.68638866 54.97041701 -12.20399851 53.2159693 -12 49 C-10.39539462 46.40559728 -8.57580585 44.03954442 -6.73828125 41.60546875 C-3.5413877 36.81372044 -2.57277367 32.12349917 -3.3515625 26.4296875 C-4.52828029 21.79370297 -6.21079582 18.49789011 -9.25 14.8125 C-11.66196326 11.84254524 -11.99019725 11.29408254 -12.125 7.25 C-9.8812606 0.76808617 -6.8742119 -1.16512066 0 0 Z " fill="#FF0000" transform="translate(87,34)"/>
<path d="M0 0 C2.8100346 1.79363911 4.50940468 3.01880935 6 6 C6.5811138 13.08958838 6.5811138 13.08958838 4.125 16.9375 C0.8698054 20.09695358 -1.42413238 20.33421243 -5.9609375 20.29296875 C-9.13134567 19.83745033 -10.8192402 18.24684343 -13 16 C-14.53214888 12.93570224 -14.22938548 10.3834358 -14 7 C-11.02756385 0.63049396 -6.86897393 -1.12474427 0 0 Z " fill="#FF0000" transform="translate(68,54)"/>
</svg>
