<?xml version="1.0" encoding="UTF-8"?>
<svg version="1.1" xmlns="http://www.w3.org/2000/svg" width="512" height="512">
<path d="M0 0 C1.34455492 -0.00390797 2.68910864 -0.00824674 4.03366089 -0.01298523 C6.83205183 -0.02037448 9.63031649 -0.02021147 12.42871094 -0.01489258 C15.25211565 -0.01027215 18.07508852 -0.01714827 20.8984375 -0.03540039 C36.97976252 -0.13835506 52.73880244 0.02725969 68.5546875 3.30078125 C69.63685547 3.51984131 70.71902344 3.73890137 71.83398438 3.96459961 C74.49315408 4.55289726 77.11447647 5.2109828 79.7421875 5.92578125 C80.6801416 6.17666504 81.6180957 6.42754883 82.58447266 6.68603516 C114.30822575 15.45601146 143.29342308 29.46253128 169.5546875 49.30078125 C170.67073364 50.13536865 170.67073364 50.13536865 171.80932617 50.98681641 C178.74519943 56.33740725 184.88483284 62.3570882 191.03295898 68.57324219 C192.74473429 70.30335533 194.46445836 72.02524981 196.18554688 73.74609375 C201.84989969 79.42853913 207.38855867 85.15494837 212.5546875 91.30078125 C213.31394531 92.17863281 214.07320313 93.05648437 214.85546875 93.9609375 C242.58642356 127.07654373 259.71771479 169.70653165 265.5546875 212.30078125 C265.72669678 213.44466309 265.89870605 214.58854492 266.07592773 215.76708984 C266.77685071 221.45937314 266.75614047 227.1623586 266.79296875 232.890625 C266.8010405 234.10738419 266.80911224 235.32414337 266.81742859 236.57777405 C266.83122737 239.15559486 266.84196823 241.73343362 266.84985352 244.3112793 C266.86127541 246.89890046 266.88156772 249.48649994 266.91137695 252.07397461 C267.59419529 311.49442824 245.99977996 371.76415503 204.54296875 415.171875 C202.51800019 417.24964863 202.51800019 417.24964863 200.91015625 419.5859375 C200.46285156 420.15183594 200.01554687 420.71773438 199.5546875 421.30078125 C198.8946875 421.30078125 198.2346875 421.30078125 197.5546875 421.30078125 C197.5546875 421.96078125 197.5546875 422.62078125 197.5546875 423.30078125 C196.26171875 424.60546875 196.26171875 424.60546875 194.3671875 426.17578125 C191.11594833 428.93214154 187.96183993 431.76058218 184.85229492 434.67382812 C144.31820552 472.58689846 86.71428637 498.37941562 30.62890625 498.46875 C29.39718437 498.47517014 29.39718437 498.47517014 28.14057922 498.48171997 C25.50772538 498.49163937 22.87505634 498.49178655 20.2421875 498.48828125 C19.34185791 498.48734467 18.44152832 498.48640808 17.51391602 498.48544312 C-9.25696536 498.42488226 -35.08062224 495.3764921 -60.4453125 486.30078125 C-61.23969727 486.0186377 -62.03408203 485.73649414 -62.85253906 485.44580078 C-73.58188859 481.59408256 -83.994949 477.40158625 -94.05395508 472.00683594 C-94.77736084 471.63848633 -95.5007666 471.27013672 -96.24609375 470.890625 C-96.86653564 470.55925537 -97.48697754 470.22788574 -98.1262207 469.88647461 C-105.20698302 468.09820755 -112.99136329 471.54688754 -119.66015625 473.73046875 C-120.73563217 474.07653671 -121.81110809 474.42260468 -122.91917419 474.77915955 C-126.40935216 475.9043907 -129.89607952 477.03992493 -133.3828125 478.17578125 C-135.80338891 478.95841919 -138.22412562 479.74056151 -140.64501953 480.5222168 C-153.39487721 484.64621587 -166.12071055 488.83731344 -178.8203125 493.11328125 C-190.16855179 496.92853642 -201.5562751 500.60553741 -212.987854 504.16390991 C-214.73250461 504.70767646 -216.47630261 505.25418715 -218.21917725 505.80361938 C-220.63960235 506.56530045 -223.06329003 507.31550308 -225.48828125 508.0625 C-226.20546829 508.29000946 -226.92265533 508.51751892 -227.66157532 508.75192261 C-231.70484338 509.98071139 -235.2224008 510.53682928 -239.4453125 510.30078125 C-238.90873292 503.70019095 -237.61841465 497.93651337 -235.515625 491.671875 C-235.21340027 490.74876022 -234.91117554 489.82564545 -234.59979248 488.8745575 C-233.59880388 485.82613956 -232.58480412 482.78222953 -231.5703125 479.73828125 C-230.8603227 477.58659635 -230.1508609 475.43473717 -229.44189453 473.28271484 C-222.68014241 452.81158191 -215.73977821 432.39930538 -208.75520325 412.00326538 C-207.65272275 408.76502197 -206.56973558 405.52070529 -205.48754883 402.27563477 C-204.20461695 398.44956079 -202.83220612 394.68502638 -201.34643555 390.93334961 C-197.38124488 380.68683129 -197.38124488 380.68683129 -199.60546875 370.1640625 C-200.84898281 367.94735632 -202.15252632 365.76347029 -203.5078125 363.61328125 C-204.53383304 361.81963273 -205.53415477 360.01318708 -206.53329468 358.20445251 C-207.20488171 356.99018622 -207.88311512 355.77957157 -208.56802368 354.57276917 C-223.60244992 327.90463125 -231.48997292 293.0741083 -231.6484375 262.5703125 C-231.65545181 261.66566757 -231.66246613 260.76102264 -231.66969299 259.82896423 C-231.68711392 256.92368544 -231.69354585 254.01861037 -231.6953125 251.11328125 C-231.69598724 250.12146851 -231.69666199 249.12965576 -231.69735718 248.10778809 C-231.68299448 234.84632319 -231.54086439 221.82055217 -228.93701172 208.76904297 C-228.39705617 206.05854116 -227.92404849 203.33981836 -227.44921875 200.6171875 C-218.47360638 151.57460214 -194.69677572 109.94213536 -160.4453125 74.30078125 C-159.7637207 73.58519043 -159.08212891 72.86959961 -158.37988281 72.13232422 C-148.45908491 61.7533929 -138.17368607 52.58894498 -126.4453125 44.30078125 C-125.81415527 43.85154297 -125.18299805 43.40230469 -124.53271484 42.93945312 C-98.62004664 24.65136439 -69.28571925 11.96019621 -38.5078125 4.48828125 C-37.70456543 4.29322998 -36.90131836 4.09817871 -36.07373047 3.8972168 C-24.10191984 1.1429957 -12.2710052 -0.00899714 0 0 Z M-93.66992188 76.13378906 C-95.31698766 77.21643131 -96.98205424 78.27155225 -98.6484375 79.32421875 C-122.82553416 94.83047184 -142.73091431 116.77678427 -157.4453125 141.30078125 C-157.82429688 141.93242187 -158.20328125 142.5640625 -158.59375 143.21484375 C-176.27641872 173.00242663 -187.78262464 207.8242032 -187.5703125 242.67578125 C-187.56620361 243.52374268 -187.56209473 244.3717041 -187.55786133 245.24536133 C-187.22200227 284.60587617 -178.85306176 338.89303199 -149.4453125 368.30078125 C-150.67818722 375.75130193 -153.06627535 382.91775847 -155.3203125 390.11328125 C-155.7030835 391.34344971 -156.08585449 392.57361816 -156.48022461 393.84106445 C-160.35176306 406.21780056 -164.47512647 418.51158363 -168.63427734 430.79418945 C-169.01468925 431.92257736 -169.01468925 431.92257736 -169.40278625 433.07376099 C-169.8811201 434.49210503 -170.36194623 435.90961174 -170.84562683 437.32614136 C-172.04463225 440.73769378 -172.04463225 440.73769378 -172.4453125 444.30078125 C-161.15378623 441.81400932 -150.27982047 438.0644888 -139.3203125 434.42578125 C-128.7440521 430.91447753 -118.17235966 427.40951668 -107.453125 424.35546875 C-106.72922577 424.14439484 -106.00532654 423.93332092 -105.25949097 423.71585083 C-100.36710017 422.35769502 -95.96703678 421.26879024 -91.14135742 423.24365234 C-90.04464722 423.90228271 -90.04464722 423.90228271 -88.92578125 424.57421875 C-88.08152588 425.0645459 -87.23727051 425.55487305 -86.36743164 426.06005859 C-85.46500732 426.59324707 -84.56258301 427.12643555 -83.6328125 427.67578125 C-34.42392982 455.51269647 22.30932656 461.07409988 76.54736328 446.18505859 C90.52988545 442.07362043 103.74008801 436.18725247 116.5546875 429.30078125 C117.22338867 428.94902832 117.89208984 428.59727539 118.58105469 428.23486328 C128.33288632 423.09076054 137.05278108 417.30825319 145.5546875 410.30078125 C146.08126953 409.87571289 146.60785156 409.45064453 147.15039062 409.01269531 C190.06074264 374.36636613 216.78580942 323.94447741 223.5546875 269.30078125 C223.65599713 266.57699949 223.71842807 263.87948655 223.72265625 261.15625 C223.72598465 260.38759109 223.72931305 259.61893219 223.73274231 258.82698059 C223.73778237 257.20244946 223.74015154 255.57790808 223.73999023 253.95336914 C223.74214748 251.53317882 223.76025259 249.1134675 223.77929688 246.69335938 C223.83256379 232.31541872 222.91094735 217.97295337 219.3671875 203.98828125 C219.15288086 203.12348145 218.93857422 202.25868164 218.71777344 201.36767578 C212.93347093 178.71726349 204.13330835 157.99527733 191.5546875 138.30078125 C190.97315918 137.37338135 190.97315918 137.37338135 190.37988281 136.42724609 C159.69554481 87.63638432 110.26712027 58.51779683 55.07080078 45.72509766 C48.59445992 44.32449374 42.16067599 43.72366305 35.5546875 43.30078125 C34.50216797 43.22923828 33.44964844 43.15769531 32.36523438 43.08398438 C-12.44542882 40.26823355 -56.10315184 51.33185345 -93.66992188 76.13378906 Z " fill="#FF0000" transform="translate(242.4453125,0.69921875)"/>
<path d="M0 0 C0.92425781 -0.00322266 1.84851563 -0.00644531 2.80078125 -0.00976562 C13.8998937 0.07756645 13.8998937 0.07756645 18.49560547 4.02783203 C20.76250534 6.61171132 21.8639334 8.91947939 23.1640625 12.09765625 C23.64198242 13.25563721 24.11990234 14.41361816 24.61230469 15.60668945 C25.1173288 16.86247461 25.6215419 18.11858619 26.125 19.375 C26.64985062 20.66829995 27.17491867 21.96151169 27.70019531 23.25463867 C29.32183711 27.26541899 30.91409545 31.28747867 32.5 35.3125 C32.75511353 35.95759521 33.01022705 36.60269043 33.27307129 37.26733398 C34.96146547 41.54221013 36.61480867 45.82941621 38.25 50.125 C38.68006348 51.23174072 39.11012695 52.33848145 39.55322266 53.47875977 C41.99557076 60.02483829 43.80076658 65.53731743 41.90625 72.4921875 C37.77325324 80.22374179 32.06337592 86.66514355 26.0625 93 C23.73410073 95.6419263 22.47082304 97.38411616 21.125 100.6875 C21.72028501 106.44192173 24.42241191 110.49055378 27.5 115.3125 C27.87705078 115.91271973 28.25410156 116.51293945 28.64257812 117.13134766 C35.49864144 127.94642987 43.50161502 137.23063672 52.5 146.3125 C53.34820312 147.16972656 54.19640625 148.02695312 55.0703125 148.91015625 C69.50031646 163.17776467 89.80997973 180.9956212 110.5 184.875 C117.87840626 183.49154883 122.89688287 175.78138031 127.5 170.3125 C129.03798302 168.49044432 130.57820752 166.67038605 132.12231445 164.85351562 C133.19364995 163.59240253 134.26130431 162.32815144 135.32495117 161.06054688 C140.89121765 154.50072398 140.89121765 154.50072398 146.0390625 153.8984375 C151.57968552 154.05731745 156.01004563 156.47377766 160.875 158.9375 C161.85871582 159.4224292 162.84243164 159.9073584 163.85595703 160.40698242 C171.76482602 164.34528903 179.58252002 168.4619553 187.375 172.625 C188.98640869 173.48569092 188.98640869 173.48569092 190.63037109 174.36376953 C193.60828618 175.97818921 196.55667871 177.63601533 199.5 179.3125 C200.40041016 179.7962207 201.30082031 180.27994141 202.22851562 180.77832031 C208.04177638 184.16062269 208.04177638 184.16062269 209.24365234 187.18188477 C209.50198688 189.34261997 209.44497629 191.2709881 209.25 193.4375 C209.21350342 194.18451172 209.17700684 194.93152344 209.1394043 195.70117188 C208.26585538 209.5708072 203.84646795 221.7331656 193.5 231.3125 C175.46201489 245.09399687 155.72815403 249.45381059 133.3828125 247.08837891 C114.43839776 244.19463921 94.36362822 234.51732499 77.59082031 225.43603516 C75.14461018 224.1215257 72.6777507 222.84962856 70.2109375 221.57421875 C52.9828347 212.55704489 38.40721404 201.84913897 24.5 188.3125 C23.94683105 187.77979492 23.39366211 187.24708984 22.82373047 186.69824219 C15.5026526 179.63120803 8.74967672 172.36217305 2.5 164.3125 C1.65801202 163.24963548 0.81554596 162.18714955 -0.02734375 161.125 C-4.47016572 155.48555122 -8.62815093 149.75987474 -12.39453125 143.640625 C-14.13838197 140.88411143 -15.9291139 138.18178717 -17.76171875 135.484375 C-36.72481878 107.56363809 -48.87830701 81.24719361 -45.1015625 46.6640625 C-41.84756845 31.2392855 -31.51928399 13.51616189 -18.484375 4.4609375 C-17.82953125 4.08195313 -17.1746875 3.70296875 -16.5 3.3125 C-15.22382813 2.50619141 -15.22382813 2.50619141 -13.921875 1.68359375 C-9.21407622 -0.20275028 -5.02067589 -0.08752922 0 0 Z " fill="#FF0000" transform="translate(181.5,126.6875)"/>
</svg>
